<?xml version="1.0" standalone="no"?>
<!DOCTYPE svg PUBLIC "-//W3C//DTD SVG 20010904//EN"
 "http://www.w3.org/TR/2001/REC-SVG-20010904/DTD/svg10.dtd">
<svg version="1.0" xmlns="http://www.w3.org/2000/svg"
 width="73.000000pt" height="73.000000pt" viewBox="0 0 73.000000 73.000000"
 preserveAspectRatio="xMidYMid meet">
<metadata>
Created by potrace 1.11, written by Peter Selinger 2001-2013
</metadata>
<g transform="translate(0.000000,73.000000) scale(0.100000,-0.100000)"
fill="#000000" stroke="none">
<path d="M620 708 c-16 -17 -23 -19 -32 -10 -19 19 -56 14 -63 -8 -8 -27 16
-65 58 -91 43 -26 57 -21 84 26 25 45 29 75 11 93 -18 18 -35 15 -58 -10z"/>
<path d="M462 624 l3 -97 -40 -3 c-22 -1 -77 -5 -122 -9 -76 -6 -83 -5 -84 12
-3 76 -23 169 -34 163 -10 -5 -11 -32 -4 -130 l3 -55 -86 -10 c-48 -5 -90 -14
-94 -18 -15 -15 20 -27 61 -22 117 15 125 14 126 -3 1 -9 2 -28 4 -42 16 -144
17 -190 4 -191 -8 -1 -27 -2 -44 -4 -16 -1 -48 -4 -70 -6 -49 -3 -78 -16 -69
-31 4 -7 39 -8 104 -3 l98 6 7 -78 c7 -78 19 -108 37 -97 8 5 4 108 -7 165 -3
14 11 18 88 23 51 4 106 10 124 12 l31 5 7 -58 c11 -93 16 -117 25 -127 9 -9
33 1 26 12 -8 15 -17 172 -9 173 4 0 15 2 23 3 8 2 39 6 69 10 109 14 87 35
-30 29 l-79 -5 -1 44 c0 24 -2 50 -4 58 -1 8 -6 45 -9 81 l-7 66 68 7 c86 9
113 16 113 28 0 7 -33 9 -90 6 -101 -5 -94 -9 -105 77 -9 78 -16 105 -27 105
-6 0 -9 -36 -6 -96z m9 -141 c0 -5 2 -17 4 -28 2 -11 7 -54 11 -95 3 -41 8
-83 10 -92 4 -24 1 -25 -101 -33 -49 -4 -102 -9 -117 -11 -24 -4 -28 -1 -29
18 0 13 -2 30 -4 38 -1 9 -6 49 -9 89 -4 41 -9 78 -12 82 -8 13 14 20 83 26
38 3 70 7 72 9 8 7 91 4 92 -3z"/>
<path d="M371 409 c-16 -17 -22 -19 -39 -8 -41 26 -75 -14 -48 -57 18 -26 72
-64 93 -64 15 0 63 80 63 106 0 23 -18 44 -37 44 -7 0 -21 -9 -32 -21z"/>
<path d="M617 454 c-1 -1 -17 -4 -35 -7 -39 -6 -47 -12 -37 -26 3 -6 17 -9 31
-7 19 4 25 0 30 -22 17 -75 25 -102 33 -102 17 0 18 14 6 68 -15 65 -13 72 21
72 15 0 24 6 24 15 0 12 -9 15 -35 13 -20 -1 -37 -3 -38 -4z"/>
<path d="M42 411 c-21 -13 3 -182 24 -171 5 3 9 17 8 32 0 19 5 30 18 33 70
23 61 114 -12 115 -14 0 -31 -4 -38 -9z m65 -37 c4 -11 -1 -22 -13 -31 -16
-12 -19 -11 -26 4 -3 10 -7 24 -7 31 -1 18 39 15 46 -4z"/>
<path d="M123 131 c-13 -16 -21 -18 -36 -10 -27 15 -67 3 -67 -20 0 -40 83
-110 115 -97 17 6 55 78 55 104 0 41 -40 54 -67 23z"/>
</g>
</svg>
